<svg xmlns="http://www.w3.org/2000/svg" width="900" height="560" viewBox="0 0 900 560">
<rect width="100%" height="100%" fill="#ffffff"/>
<text x="88" y="46" font-size="24" font-family="Arial" font-weight="700" fill="#111827">Energy Per Request</text>
<text x="88" y="542" font-size="13" font-family="Arial" fill="#374151">admission_fraction</text>
<text x="18" y="58" font-size="13" font-family="Arial" fill="#374151">J/req</text>
<line x1="88" y1="490.0" x2="865" y2="490.0" stroke="#e5e7eb"/>
<text x="78" y="494.0" text-anchor="end" font-size="12" font-family="Arial" fill="#374151">33.2</text>
<line x1="88" y1="406.0" x2="865" y2="406.0" stroke="#e5e7eb"/>
<text x="78" y="410.0" text-anchor="end" font-size="12" font-family="Arial" fill="#374151">37.0</text>
<line x1="88" y1="322.0" x2="865" y2="322.0" stroke="#e5e7eb"/>
<text x="78" y="326.0" text-anchor="end" font-size="12" font-family="Arial" fill="#374151">40.9</text>
<line x1="88" y1="238.0" x2="865" y2="238.0" stroke="#e5e7eb"/>
<text x="78" y="242.0" text-anchor="end" font-size="12" font-family="Arial" fill="#374151">44.8</text>
<line x1="88" y1="154.0" x2="865" y2="154.0" stroke="#e5e7eb"/>
<text x="78" y="158.0" text-anchor="end" font-size="12" font-family="Arial" fill="#374151">48.7</text>
<line x1="88" y1="70.0" x2="865" y2="70.0" stroke="#e5e7eb"/>
<text x="78" y="74.0" text-anchor="end" font-size="12" font-family="Arial" fill="#374151">52.6</text>
<line x1="88.0" y1="70" x2="88.0" y2="490" stroke="#f3f4f6"/>
<text x="88.0" y="514" text-anchor="middle" font-size="12" font-family="Arial" fill="#374151">0.05</text>
<line x1="128.9" y1="70" x2="128.9" y2="490" stroke="#f3f4f6"/>
<text x="128.9" y="514" text-anchor="middle" font-size="12" font-family="Arial" fill="#374151">0.1</text>
<line x1="251.6" y1="70" x2="251.6" y2="490" stroke="#f3f4f6"/>
<text x="251.6" y="514" text-anchor="middle" font-size="12" font-family="Arial" fill="#374151">0.25</text>
<line x1="456.1" y1="70" x2="456.1" y2="490" stroke="#f3f4f6"/>
<text x="456.1" y="514" text-anchor="middle" font-size="12" font-family="Arial" fill="#374151">0.5</text>
<line x1="660.5" y1="70" x2="660.5" y2="490" stroke="#f3f4f6"/>
<text x="660.5" y="514" text-anchor="middle" font-size="12" font-family="Arial" fill="#374151">0.75</text>
<line x1="865.0" y1="70" x2="865.0" y2="490" stroke="#f3f4f6"/>
<text x="865.0" y="514" text-anchor="middle" font-size="12" font-family="Arial" fill="#374151">1</text>
<rect x="88" y="70" width="777" height="420" fill="none" stroke="#9ca3af"/>
<polyline points="865.0,461.0 660.5,264.4 456.1,292.7 251.6,404.1 128.9,344.4 88.0,99.0" fill="none" stroke="#2563eb" stroke-width="3"/>
<circle cx="865.0" cy="461.0" r="5" fill="#2563eb"/>
<text x="865.0" y="451.0" text-anchor="middle" font-size="11" font-family="Arial" fill="#1f2937">34.5</text>
<circle cx="660.5" cy="264.4" r="5" fill="#2563eb"/>
<text x="660.5" y="254.4" text-anchor="middle" font-size="11" font-family="Arial" fill="#1f2937">43.6</text>
<circle cx="456.1" cy="292.7" r="5" fill="#2563eb"/>
<text x="456.1" y="282.7" text-anchor="middle" font-size="11" font-family="Arial" fill="#1f2937">42.3</text>
<circle cx="251.6" cy="404.1" r="5" fill="#2563eb"/>
<text x="251.6" y="394.1" text-anchor="middle" font-size="11" font-family="Arial" fill="#1f2937">37.1</text>
<circle cx="128.9" cy="344.4" r="5" fill="#2563eb"/>
<text x="128.9" y="334.4" text-anchor="middle" font-size="11" font-family="Arial" fill="#1f2937">39.9</text>
<circle cx="88.0" cy="99.0" r="5" fill="#2563eb"/>
<text x="88.0" y="89.0" text-anchor="middle" font-size="11" font-family="Arial" fill="#1f2937">51.2</text>
</svg>